<svg width="40" height="40" viewBox="0 0 40 40" fill="none" xmlns="http://www.w3.org/2000/svg">
<path d="M35 25C35 25.8841 34.6488 26.7319 34.0237 27.357C33.3986 27.9821 32.5507 28.3333 31.6667 28.3333H11.6667L5 35V8.33333C5 7.44928 5.35119 6.60143 5.97631 5.97631C6.60143 5.35119 7.44928 5 8.33333 5H31.6667C32.5507 5 33.3986 5.35119 34.0237 5.97631C34.6488 6.60143 35 7.44928 35 8.33333V25Z" stroke="#1A1E26" stroke-linecap="round" stroke-linejoin="round"/>
<path d="M12.983 21.1136C14.1903 21.1136 14.9858 20.375 15.1278 19.4091H14.2898C14.1335 20.0057 13.6364 20.3608 12.983 20.3608C11.9886 20.3608 11.3494 19.5369 11.3494 18.2727C11.3494 17.0369 12.0028 16.2273 12.983 16.2273C13.7216 16.2273 14.1619 16.6818 14.2898 17.179H15.1278C14.9858 16.1562 14.1193 15.4744 12.9688 15.4744C11.4915 15.4744 10.5114 16.6392 10.5114 18.3011C10.5114 19.9347 11.4489 21.1136 12.983 21.1136ZM18.5689 21.1136C20.0462 21.1136 21.0405 19.9915 21.0405 18.3011C21.0405 16.5966 20.0462 15.4744 18.5689 15.4744C17.0916 15.4744 16.0973 16.5966 16.0973 18.3011C16.0973 19.9915 17.0916 21.1136 18.5689 21.1136ZM18.5689 20.3608C17.4467 20.3608 16.9354 19.3949 16.9354 18.3011C16.9354 17.2074 17.4467 16.2273 18.5689 16.2273C19.6911 16.2273 20.2024 17.2074 20.2024 18.3011C20.2024 19.3949 19.6911 20.3608 18.5689 20.3608ZM22.3198 21H23.1578V17.5909C23.1578 16.7919 23.7402 16.2273 24.3936 16.2273C25.0293 16.2273 25.4732 16.6428 25.4732 17.2642V21H26.3255V17.4489C26.3255 16.7457 26.7658 16.2273 27.5328 16.2273C28.1294 16.2273 28.6408 16.5433 28.6408 17.3494V21H29.4789V17.3494C29.4789 16.0675 28.79 15.4744 27.8169 15.4744C27.0357 15.4744 26.464 15.8331 26.1834 16.3977H26.1266C25.8567 15.8153 25.3809 15.4744 24.6635 15.4744C23.9533 15.4744 23.4277 15.8153 23.2005 16.3977H23.1294V15.5455H22.3198V21Z" fill="#1A1E26"/>
</svg>
