<svg width="54" height="62" viewBox="0 0 54 62" fill="none" xmlns="http://www.w3.org/2000/svg">
<g filter="url(#filter0_d)">
<path d="M31.1668 10.1666H14.5002C13.3951 10.1666 12.3353 10.6056 11.5539 11.387C10.7725 12.1684 10.3335 13.2282 10.3335 14.3333V47.6666C10.3335 48.7717 10.7725 49.8315 11.5539 50.6129C12.3353 51.3943 13.3951 51.8333 14.5002 51.8333H39.5002C40.6052 51.8333 41.665 51.3943 42.4464 50.6129C43.2278 49.8315 43.6668 48.7717 43.6668 47.6666V22.6666L31.1668 10.1666Z" fill="#1A1E26"/>
</g>
<path d="M31.1665 10.1666V22.6666H43.6665" stroke="white" stroke-linecap="round" stroke-linejoin="round"/>
<path d="M31.4194 41.6694L22.5806 32.8306" stroke="white" stroke-linecap="round" stroke-linejoin="round"/>
<path d="M22.5806 41.6694L31.4194 32.8306" stroke="white" stroke-linecap="round" stroke-linejoin="round"/>
<defs>
<filter id="filter0_d" x="0.333496" y="0.166626" width="53.3333" height="61.6667" filterUnits="userSpaceOnUse" color-interpolation-filters="sRGB">
<feFlood flood-opacity="0" result="BackgroundImageFix"/>
<feColorMatrix in="SourceAlpha" type="matrix" values="0 0 0 0 0 0 0 0 0 0 0 0 0 0 0 0 0 0 127 0"/>
<feOffset/>
<feGaussianBlur stdDeviation="5"/>
<feColorMatrix type="matrix" values="0 0 0 0 0.101961 0 0 0 0 0.117647 0 0 0 0 0.14902 0 0 0 0.1 0"/>
<feBlend mode="normal" in2="BackgroundImageFix" result="effect1_dropShadow"/>
<feBlend mode="normal" in="SourceGraphic" in2="effect1_dropShadow" result="shape"/>
</filter>
</defs>
</svg>
