<svg width="40" height="40" viewBox="0 0 40 40" fill="none" xmlns="http://www.w3.org/2000/svg">
<path d="M23.3332 3.33331H9.99984C9.11578 3.33331 8.26794 3.6845 7.64281 4.30962C7.01769 4.93474 6.6665 5.78259 6.6665 6.66665V33.3333C6.6665 34.2174 7.01769 35.0652 7.64281 35.6903C8.26794 36.3155 9.11578 36.6666 9.99984 36.6666H29.9998C30.8839 36.6666 31.7317 36.3155 32.3569 35.6903C32.982 35.0652 33.3332 34.2174 33.3332 33.3333V13.3333L23.3332 3.33331Z" stroke="#1A1E26" stroke-linecap="round" stroke-linejoin="round"/>
<path d="M23.3335 3.33331V13.3333H33.3335" stroke="#1A1E26" stroke-linecap="round" stroke-linejoin="round"/>
<path d="M16.6668 15H15.0002H13.3335" stroke="#1A1E26" stroke-linecap="round" stroke-linejoin="round"/>
<path d="M12.392 24.5455H11.4261L13.1591 27.2727L11.4261 30H12.392L13.6989 27.8835L15.0057 30H15.9716L14.2102 27.2727L15.9716 24.5455H15.0057L13.6989 26.7756L12.392 24.5455ZM18.0055 22.7273H17.1674V30H18.0055V22.7273ZM23.4041 25.767C23.1413 24.9929 22.5518 24.4744 21.4723 24.4744C20.3217 24.4744 19.4695 25.1278 19.4695 26.0511C19.4695 26.804 19.9169 27.3082 20.9183 27.5426L21.8274 27.7557C22.3778 27.8835 22.6371 28.1463 22.6371 28.5227C22.6371 28.9915 22.1399 29.375 21.3587 29.375C20.6733 29.375 20.2436 29.0803 20.0945 28.4943L19.299 28.6932C19.4943 29.62 20.2578 30.1136 21.3729 30.1136C22.6406 30.1136 23.5036 29.4212 23.5036 28.4801C23.5036 27.7202 23.0277 27.2408 22.0547 27.0028L21.245 26.804C20.5987 26.6442 20.3075 26.4276 20.3075 26.0085C20.3075 25.5398 20.8047 25.1989 21.4723 25.1989C22.2038 25.1989 22.5057 25.6037 22.6513 25.9801L23.4041 25.767ZM25.3901 24.5455H24.4242L26.1571 27.2727L24.4242 30H25.3901L26.6969 27.8835L28.0037 30H28.9696L27.2083 27.2727L28.9696 24.5455H28.0037L26.6969 26.7756L25.3901 24.5455Z" fill="#1A1E26"/>
</svg>
