<svg width="40" height="40" viewBox="0 0 40 40" fill="none" xmlns="http://www.w3.org/2000/svg">
<path d="M21.6665 3.33331H9.99984C9.11578 3.33331 8.26794 3.6845 7.64281 4.30962C7.01769 4.93474 6.6665 5.78259 6.6665 6.66665V33.3333C6.6665 34.2174 7.01769 35.0652 7.64281 35.6903C8.26794 36.3155 9.11578 36.6666 9.99984 36.6666H29.9998C30.8839 36.6666 31.7317 36.3155 32.3569 35.6903C32.982 35.0652 33.3332 34.2174 33.3332 33.3333V15L21.6665 3.33331Z" stroke="#1A1E26" stroke-linecap="round" stroke-linejoin="round"/>
<path d="M21.6665 3.33331V15H33.3332" stroke="#1A1E26" stroke-linecap="round" stroke-linejoin="round"/>
<path d="M12.767 32.0455H13.6051V29.1619H13.6761C13.8608 29.4602 14.2159 30.1136 15.267 30.1136C16.6307 30.1136 17.5824 29.0199 17.5824 27.2869C17.5824 25.5682 16.6307 24.4744 15.2528 24.4744C14.1875 24.4744 13.8608 25.1278 13.6761 25.4119H13.5767V24.5455H12.767V32.0455ZM13.5909 27.2727C13.5909 26.0511 14.1307 25.2273 15.1534 25.2273C16.2188 25.2273 16.7443 26.1222 16.7443 27.2727C16.7443 28.4375 16.2045 29.3608 15.1534 29.3608C14.1449 29.3608 13.5909 28.5085 13.5909 27.2727ZM20.9205 30.1136C21.9716 30.1136 22.3267 29.4602 22.5114 29.1619H22.6108V30H23.4205V22.7273H22.5824V25.4119H22.5114C22.3267 25.1278 22 24.4744 20.9347 24.4744C19.5568 24.4744 18.6051 25.5682 18.6051 27.2869C18.6051 29.0199 19.5568 30.1136 20.9205 30.1136ZM21.0341 29.3608C19.983 29.3608 19.4432 28.4375 19.4432 27.2727C19.4432 26.1222 19.9688 25.2273 21.0341 25.2273C22.0568 25.2273 22.5966 26.0511 22.5966 27.2727C22.5966 28.5085 22.0426 29.3608 21.0341 29.3608ZM27.5007 24.5455H26.2791V23.9915C26.2791 23.4517 26.5064 23.1676 27.0604 23.1676C27.3018 23.1676 27.4439 23.2244 27.5291 23.2528L27.7706 22.5284C27.6428 22.4716 27.3871 22.3864 26.9751 22.3864C26.1939 22.3864 25.4411 22.8551 25.4411 23.7926V24.5455H24.5604V25.2557H25.4411V30H26.2791V25.2557H27.5007V24.5455Z" fill="#1A1E26"/>
</svg>
