<svg width="30" height="30" viewBox="0 0 30 30" fill="none" xmlns="http://www.w3.org/2000/svg">
<path d="M3.00174 11.9493L3.00168 11.9505C2.98439 12.2595 3.157 12.5465 3.43717 12.6756C3.4373 12.6756 3.43749 12.6757 3.43762 12.6758L12.8172 16.9781L12.9858 17.0554L13.0632 17.224L17.3653 26.6021C17.3654 26.6022 17.3655 26.6024 17.3656 26.6025C17.489 26.87 17.7565 27.04 18.0475 27.04L3.00174 11.9493ZM3.00174 11.9493C3.01813 11.6438 3.222 11.3775 3.51552 11.2815L3.51602 11.2813L24.8034 4.28756C24.8039 4.28738 24.8045 4.28719 24.8051 4.28701C25.0813 4.19946 25.3761 4.27128 25.572 4.46791C25.7718 4.66847 25.8426 4.96588 25.7547 5.2347L18.7614 26.5234C18.7614 26.5234 18.7613 26.5235 18.7613 26.5236C18.6641 26.8179 18.3976 27.0215 18.0928 27.0382L3.00174 11.9493Z" fill="white" stroke="#1A1E26"/>
</svg>
