<svg width="30" height="30" viewBox="0 0 30 30" fill="none" xmlns="http://www.w3.org/2000/svg">
<rect x="0.5" y="0.5" width="29" height="29" rx="4.5" fill="white" stroke="#1A1E26"/>
<path d="M7.77211 7.71875C7.77211 6.76705 8.36159 6.22727 9.16415 6.22727C9.94185 6.22727 10.4142 6.73509 10.4142 7.59091V11H11.2522V7.53409C11.2522 6.14205 10.51 5.47443 9.40563 5.47443C8.58176 5.47443 8.0704 5.84375 7.81472 6.39773H7.7437V5.54545H6.93404V11H7.77211V7.71875ZM14.9996 11.1136C16.4768 11.1136 17.4711 9.99148 17.4711 8.30114C17.4711 6.59659 16.4768 5.47443 14.9996 5.47443C13.5223 5.47443 12.528 6.59659 12.528 8.30114C12.528 9.99148 13.5223 11.1136 14.9996 11.1136ZM14.9996 10.3608C13.8774 10.3608 13.366 9.39489 13.366 8.30114C13.366 7.20739 13.8774 6.22727 14.9996 6.22727C16.1217 6.22727 16.6331 7.20739 16.6331 8.30114C16.6331 9.39489 16.1217 10.3608 14.9996 10.3608ZM19.5885 7.71875C19.5885 6.76705 20.178 6.22727 20.9806 6.22727C21.7583 6.22727 22.2306 6.73509 22.2306 7.59091V11H23.0686V7.53409C23.0686 6.14205 22.3264 5.47443 21.222 5.47443C20.3982 5.47443 19.8868 5.84375 19.6311 6.39773H19.5601V5.54545H18.7504V11H19.5885V7.71875ZM5.6108 25.0455H6.44886V22.1619H6.51989C6.70455 22.4602 7.05966 23.1136 8.1108 23.1136C9.47443 23.1136 10.4261 22.0199 10.4261 20.2869C10.4261 18.5682 9.47443 17.4744 8.09659 17.4744C7.03125 17.4744 6.70455 18.1278 6.51989 18.4119H6.42045V17.5455H5.6108V25.0455ZM6.43466 20.2727C6.43466 19.0511 6.97443 18.2273 7.99716 18.2273C9.0625 18.2273 9.58807 19.1222 9.58807 20.2727C9.58807 21.4375 9.0483 22.3608 7.99716 22.3608C6.98864 22.3608 6.43466 21.5085 6.43466 20.2727ZM13.3097 23.1278C14.2614 23.1278 14.7585 22.6165 14.929 22.2614H14.9716V23H15.8097V19.4062C15.8097 17.6733 14.4886 17.4744 13.7926 17.4744C12.9688 17.4744 12.0312 17.7585 11.6051 18.7528L12.4006 19.0369C12.5852 18.6392 13.022 18.2131 13.821 18.2131C14.5916 18.2131 14.9716 18.6214 14.9716 19.321V19.3494C14.9716 19.7543 14.5597 19.7188 13.5653 19.8466C12.5533 19.978 11.4489 20.2017 11.4489 21.4517C11.4489 22.517 12.2727 23.1278 13.3097 23.1278ZM13.4375 22.375C12.7699 22.375 12.2869 22.0767 12.2869 21.4943C12.2869 20.8551 12.8693 20.6562 13.5227 20.571C13.8778 20.5284 14.8295 20.429 14.9716 20.2585V21.0256C14.9716 21.7074 14.4318 22.375 13.4375 22.375ZM17.3393 23H18.1774V17.5455H17.3393V23ZM17.7654 16.6364C18.0922 16.6364 18.362 16.3807 18.362 16.0682C18.362 15.7557 18.0922 15.5 17.7654 15.5C17.4387 15.5 17.1689 15.7557 17.1689 16.0682C17.1689 16.3807 17.4387 16.6364 17.7654 16.6364ZM21.772 23.1136C22.8232 23.1136 23.1783 22.4602 23.3629 22.1619H23.4624V23H24.272V15.7273H23.4339V18.4119H23.3629C23.1783 18.1278 22.8516 17.4744 21.7862 17.4744C20.4084 17.4744 19.4567 18.5682 19.4567 20.2869C19.4567 22.0199 20.4084 23.1136 21.772 23.1136ZM21.8857 22.3608C20.8345 22.3608 20.2947 21.4375 20.2947 20.2727C20.2947 19.1222 20.8203 18.2273 21.8857 18.2273C22.9084 18.2273 23.4482 19.0511 23.4482 20.2727C23.4482 21.5085 22.8942 22.3608 21.8857 22.3608Z" fill="#1A1E26"/>
</svg>
