<svg width="26" height="18" viewBox="0 0 26 18" fill="none" xmlns="http://www.w3.org/2000/svg">
<path d="M10.5 7.75005H6.87625C6.87625 7.7463 6.87625 7.74255 6.8775 7.7388C6.95875 7.34005 7.08125 6.9463 7.24125 6.56755C7.39875 6.1963 7.5925 5.8388 7.8175 5.50505C8.04 5.17505 8.2975 4.8638 8.58 4.58005C8.86375 4.29755 9.175 4.04005 9.5075 3.8163C9.84 3.5913 10.1962 3.3988 10.5675 3.2413C10.945 3.0813 11.3387 2.9588 11.74 2.87755C12.5625 2.7088 13.4363 2.7088 14.2625 2.87755C14.66 2.9588 15.055 3.0813 15.4337 3.2413C15.8037 3.39755 16.16 3.59255 16.4963 3.81755C16.8288 4.0413 17.1388 4.29755 17.4188 4.5788L19.1888 2.8138C18.7962 2.4188 18.3587 2.0588 17.8937 1.74505C17.4275 1.43005 16.9275 1.15755 16.4088 0.937554C15.8775 0.712554 15.3237 0.541304 14.765 0.427554C13.6112 0.191304 12.3913 0.191304 11.2413 0.427554C10.68 0.542554 10.1263 0.713804 9.59625 0.938804C9.0725 1.1588 8.5725 1.43005 8.1075 1.74505C7.645 2.0563 7.21 2.4163 6.8125 2.81255C6.415 3.2088 6.05625 3.64505 5.74625 4.1063C5.43125 4.57255 5.15875 5.07255 4.93875 5.5938C4.71375 6.1238 4.5425 6.67755 4.42875 7.23755C4.39375 7.4063 4.375 7.5788 4.35 7.75005H0.5L5.5 12.7501L10.5 7.75005ZM15.5 10.2501H19.1238C19.1225 10.2538 19.1238 10.2576 19.1225 10.2601C19.04 10.6651 18.9175 11.0588 18.7575 11.4326C18.6038 11.7988 18.41 12.1563 18.1838 12.4926C17.96 12.8226 17.7025 13.1351 17.4175 13.4201C17.1363 13.7013 16.8263 13.9576 16.4937 14.1826C16.1588 14.4076 15.8025 14.6013 15.4325 14.7588C15.0538 14.9188 14.66 15.0413 14.26 15.1226C13.4388 15.2913 12.5638 15.2913 11.7388 15.1226C11.34 15.0413 10.9462 14.9188 10.5675 14.7588C10.1962 14.6013 9.83875 14.4076 9.505 14.1826C9.175 13.9601 8.86375 13.7026 8.58 13.4201L6.8125 15.1876C7.20875 15.5838 7.645 15.9438 8.10625 16.2551C8.5725 16.5701 9.0725 16.8426 9.59375 17.0626C10.1237 17.2876 10.6775 17.4588 11.2375 17.5726C11.8138 17.6901 12.4062 17.7501 13 17.7501C13.5938 17.7501 14.1862 17.6901 14.76 17.5726C15.3212 17.4588 15.8763 17.2863 16.4062 17.0613C16.925 16.8413 17.425 16.5701 17.8913 16.2551C18.3563 15.9413 18.7938 15.5801 19.185 15.1876C19.5812 14.7913 19.9412 14.3551 20.2537 13.8913C20.5712 13.4201 20.8438 12.9201 21.06 12.4076C21.2825 11.8826 21.4538 11.3288 21.57 10.7626C21.6038 10.5938 21.6238 10.4213 21.6488 10.2501H25.5L20.5 5.25005L15.5 10.2501Z" fill="#BB9532"/>
</svg>
